<svg version="1.2" xmlns="http://www.w3.org/2000/svg" viewBox="0 0 1600 1600" width="1600" height="1600">
	<style>
		.s0 { fill: #ffffff } 
	</style>
	<path id="&lt;Path&gt; copy 3" class="s0" d="m953.07 12c-33.81 3.45-67.01 11.2-100.14 18.55-95.1 23.15-187.23 58.45-273.97 103.81-3.96 2.19-8.46 3.82-11.67 7.16 6.52 63.24 16.69 126.16 28.56 188.65 15.69 80.74 35.74 160.67 60.97 238.96 25.85 82.81 57.26 163.96 94.62 242.27 33.67 71.32 72.58 140.2 117.39 205.14 69.72 103.21 151.56 198.37 245.12 280.7 59.41 52.59 123.4 99.99 190.41 142.41 70.14 43.86 142.94 83.75 219.18 115.94 8.26 3.17 16.06 7.38 24.61 9.7l0.51 1.36c-23.11-7.52-45.73-16.79-68.45-25.56-83.51-32.36-165.78-68.61-242.9-114.38-132.89-75.99-254.08-172.65-356.61-286.36-55.59-61.89-106.54-128.04-150.66-198.59-43.35-69.23-81.87-141.56-114.2-216.58-71.14-166.61-116.3-343.44-143.39-522.25l-1.67-0.47c-55.63 36.97-105.9 81.57-152.26 129.54-51.67 55.06-98.57 114.57-140.76 177.17v1.21c87.22 135.07 182.46 265.48 291.5 383.87 103.29 114.07 217.99 217.71 340.63 310.63 66.91 50.68 136.53 97.76 208.88 140.31 153.15 88.75 315.22 163.44 485.07 213.87 5.46 0.74 10.23 4.57 15.88 3.95l-0.11 1.56c-106.84-27.47-212.84-60.13-315.83-100.19-154.5-58.67-303.5-132.75-440.98-224.68-130.26-86.59-252.16-186.04-361.21-298.24-101.58-103.97-193-217.89-272.44-339.65-1.5-1.7-2.32-5.93-5.4-4.82-28.6 56.8-53.62 115.57-72.54 176.34-22.41 71.16-37.08 144.62-46 218.64-2.61 27.18-4.11 54.48-4.91 81.78 0.11 3.13-0.51 6.45 0.66 9.47 46.53 27.08 93.1 54.2 141.05 78.77 114.26 59.76 233.62 109.39 355.05 152.55 29.62 11.01 59.78 20.46 89.46 31.29 91.48 29.93 183.41 58.46 276.35 83.53 84.25 23.15 169.28 42.77 254.45 62.06 23.95 5.99 48.46 9.61 72.41 15.63 55.69 9.63 110.48 23.69 166.18 33.46 20.31 5 41.18 7.13 61.52 12.08 42.34 7.97 84.54 16.91 127.16 23.26 5.28 2.09 10.97 1.68 16.52 2.16 2.51 1.02 5.1 1.84 7.83 1.39l0.24 1.54c-46.81-6.65-94.88-10.37-142.07-17.25-47.72-5.76-95.42-11.94-143.04-18.06-163.14-24.65-326.11-52.26-486.82-89.92-98.77-23.11-197.23-48.05-294.3-77.53-168.53-51.38-334.42-112.92-492.19-191.87-1.13-0.35-3.41-1.07-4.56-1.42 4.25 30.43 11.3 60.4 18.53 90.23 12.39 46.08 25.8 92.32 47.7 134.97 28.99 56.88 64.86 110.21 106.06 158.96 2.98 3.06 4.83 7.27 8.51 9.59-5.51-12.96-13.11-25.06-18.94-37.94-21.3-43.7-38.29-89.45-50.5-136.49-6.9-23.23-10.8-47.21-14.11-71.16 204.69 73.21 416.82 123.89 630.35 163.79 9 2.38 18.38 2.44 27.28 5.18 32 4.95 63.74 11.58 95.85 15.86 74.37 12.38 149.19 21.55 223.96 30.75 124.25 14.36 248.97 24.57 373.77 31.96 17.05 1.38 34.22 0.5 51.23 2.22 31.35 1.67 62.9 0.76 94.11 4.21-0.33-0.53-0.99-1.62-1.32-2.17-14.97-4.42-28.63-12.12-42.58-18.9-59.33-30.53-116.11-65.89-170.14-105.06-130.14-93.97-243.35-213.14-323.23-352.83-42.75-72.95-76.38-150.93-103.94-230.78-39.63-117.69-63.13-240.56-71.41-364.42-0.64-10.93-0.13-21.88-1.81-32.72-1.21-45.26-1.13-90.58 0.84-135.81 6.41-108.37 26.69-216.1 62.66-318.61 1.25-4.58 4.54-8.81 4-13.72z"/>
	<g id="图层 1">
	</g>
</svg>